<?xml version="1.0" standalone="no"?>
<!DOCTYPE svg PUBLIC "-//W3C//DTD SVG 20010904//EN"
 "http://www.w3.org/TR/2001/REC-SVG-20010904/DTD/svg10.dtd">
<svg version="1.0" xmlns="http://www.w3.org/2000/svg"
 width="260.000000pt" height="260.000000pt" viewBox="0 0 260.000000 260.000000"
 preserveAspectRatio="xMidYMid meet">
<metadata>
Created by potrace 1.11, written by Peter Selinger 2001-2013
</metadata>
<g transform="translate(0.000000,260.000000) scale(0.100000,-0.100000)"
fill="#000000" stroke="none">
<path d="M1050 2158 c-81 -25 -186 -94 -250 -165 -103 -112 -180 -249 -303
-533 -47 -107 -96 -220 -110 -250 -14 -30 -66 -147 -115 -260 -49 -113 -120
-274 -157 -358 -37 -84 -65 -155 -62 -158 12 -12 292 -3 303 9 6 7 41 84 79
172 37 88 74 168 83 178 14 16 45 17 382 17 271 0 369 -3 378 -12 8 -8 12 -65
12 -190 l0 -178 613 2 612 3 3 109 c1 60 -1 113 -6 118 -6 6 -198 9 -454 8
-372 -1 -447 2 -457 13 -8 10 -11 81 -9 248 l3 234 420 5 420 5 0 130 0 130
-420 5 c-231 3 -421 7 -423 8 -1 1 -1 109 0 240 l3 237 445 5 445 5 3 109 c2
71 -1 113 -9 122 -10 12 -121 14 -688 13 -653 0 -678 -1 -741 -21z m234 -244
c8 -20 8 -798 0 -818 -5 -14 -43 -16 -319 -16 -203 0 -316 4 -320 10 -4 6 24
81 60 168 37 86 83 193 101 237 69 162 155 292 238 360 77 62 225 99 240 59z"/>
</g>
</svg>
